<?xml version="1.0" encoding="utf-8"?>
<!-- Generator: Adobe Illustrator 16.0.2, SVG Export Plug-In . SVG Version: 6.00 Build 0)  -->
<!DOCTYPE svg PUBLIC "-//W3C//DTD SVG 1.1//EN" "http://www.w3.org/Graphics/SVG/1.1/DTD/svg11.dtd">
<svg version="1.1" id="Layer_1" xmlns="http://www.w3.org/2000/svg" xmlns:xlink="http://www.w3.org/1999/xlink" x="0px" y="0px"
	 width="75.591px" height="75.59px" viewBox="0 0 75.591 75.59" enable-background="new 0 0 75.591 75.59" xml:space="preserve">
<radialGradient id="SVGID_1_" cx="37.7954" cy="37.7949" r="37.7952" gradientUnits="userSpaceOnUse">
	<stop  offset="0" style="stop-color:#80FF00"/>
	<stop  offset="0.1624" style="stop-color:#7EFC00"/>
	<stop  offset="0.2928" style="stop-color:#79F200"/>
	<stop  offset="0.4122" style="stop-color:#71E100"/>
	<stop  offset="0.525" style="stop-color:#65C900"/>
	<stop  offset="0.6332" style="stop-color:#55AA00"/>
	<stop  offset="0.7379" style="stop-color:#428400"/>
	<stop  offset="0.8399" style="stop-color:#2C5800"/>
	<stop  offset="0.9371" style="stop-color:#132500"/>
	<stop  offset="1" style="stop-color:#000000"/>
</radialGradient>
<circle opacity="0.13" fill="url(#SVGID_1_)" cx="37.795" cy="37.795" r="37.795"/>
<g>
	<g>
		<path fill="#80FF00" d="M11.086,52.989v1.981v1.981l19.25-6.069c-0.337-1.201-0.631-2.432-0.876-3.687L11.086,52.989z"/>
		<path fill="#80FF00" d="M28.686,41.521c-0.052-0.646-0.094-1.293-0.122-1.943l-17.478,5.511v1.981v1.981l17.791-5.609
			C28.802,42.805,28.737,42.164,28.686,41.521z"/>
		<path fill="#80FF00" d="M28.643,33.632c0.047-0.683,0.105-1.362,0.18-2.038l-17.736,5.592v1.982v1.98l17.456-5.503
			C28.563,34.972,28.596,34.301,28.643,33.632z"/>
		<path fill="#80FF00" d="M11.086,31.266v1.982l18.358-5.789c0.284-1.465,0.63-2.898,1.038-4.29l-19.396,6.116V31.266z"/>
		<path fill="#80FF00" d="M63.969,33.686c-0.613-2.032-1.726-3.908-3.204-5.585c-2.221-2.517-5.262-4.609-8.862-6.215
			c-3.602-1.604-7.771-2.717-12.283-3.22c-0.161-0.018-0.323-0.027-0.486-0.027c-0.903,0-1.766,0.279-2.481,0.771
			c-0.716,0.491-1.294,1.203-1.617,2.062c-1.746,4.621-2.739,10.029-2.74,15.816c0.001,5.787,0.994,11.195,2.74,15.816
			c0.324,0.858,0.901,1.57,1.618,2.061c0.716,0.492,1.578,0.771,2.48,0.771c0.162,0,0.323-0.009,0.483-0.026
			c3.44-0.383,6.68-1.121,9.62-2.16c4.409-1.561,8.155-3.786,10.872-6.568c1.356-1.391,2.454-2.928,3.216-4.591
			c0.762-1.661,1.183-3.454,1.182-5.302C64.506,36.054,64.32,34.845,63.969,33.686z M60.352,39.792
			c-0.434,1.435-1.244,2.842-2.423,4.181c-1.764,2.006-4.358,3.835-7.563,5.26c-3.204,1.428-7.011,2.455-11.165,2.917l-0.067,0.004
			c-0.121,0-0.24-0.038-0.342-0.107c-0.102-0.07-0.178-0.164-0.222-0.281c-1.57-4.149-2.497-9.128-2.496-14.479
			c-0.001-5.352,0.926-10.331,2.496-14.48c0.045-0.118,0.12-0.211,0.222-0.282c0.102-0.069,0.221-0.107,0.342-0.107l0.067,0.004
			c3.165,0.352,6.128,1.032,8.777,1.967c3.975,1.401,7.232,3.389,9.425,5.642c1.098,1.126,1.931,2.314,2.485,3.526
			c0.555,1.214,0.837,2.45,0.838,3.729C60.726,38.139,60.599,38.971,60.352,39.792z"/>
	</g>
</g>
</svg>
