<?xml version="1.0" encoding="utf-8"?>
<!-- Generator: Adobe Illustrator 16.0.2, SVG Export Plug-In . SVG Version: 6.00 Build 0)  -->
<!DOCTYPE svg PUBLIC "-//W3C//DTD SVG 1.1//EN" "http://www.w3.org/Graphics/SVG/1.1/DTD/svg11.dtd">
<svg version="1.1" id="Layer_1" xmlns="http://www.w3.org/2000/svg" xmlns:xlink="http://www.w3.org/1999/xlink" x="0px" y="0px"
	 width="75.59px" height="75.591px" viewBox="0 0 75.59 75.591" enable-background="new 0 0 75.59 75.591" xml:space="preserve">
<radialGradient id="SVGID_1_" cx="37.7949" cy="37.7954" r="37.7952" gradientUnits="userSpaceOnUse">
	<stop  offset="0" style="stop-color:#FF0000"/>
	<stop  offset="0.1624" style="stop-color:#FC0000"/>
	<stop  offset="0.2928" style="stop-color:#F20000"/>
	<stop  offset="0.4122" style="stop-color:#E10000"/>
	<stop  offset="0.525" style="stop-color:#C90000"/>
	<stop  offset="0.6332" style="stop-color:#AA0000"/>
	<stop  offset="0.7379" style="stop-color:#840000"/>
	<stop  offset="0.8399" style="stop-color:#580000"/>
	<stop  offset="0.9371" style="stop-color:#250000"/>
	<stop  offset="1" style="stop-color:#000000"/>
</radialGradient>
<circle opacity="0.13" fill="url(#SVGID_1_)" cx="37.795" cy="37.796" r="37.795"/>
<g>
	<g>
		<path fill="#FF0000" d="M51.977,21.95l-2.105-2.104l-7.184,7.185c1.064,0.46,1.984,0.914,2.783,1.426L51.977,21.95z"/>
		<path fill="#FF0000" d="M26.563,43.154l-7.795,7.794l2.107,2.104c1.914-1.915,3.988-3.446,6.152-4.61
			c-0.289-1.619-0.467-3.358-0.467-5.205C26.561,43.209,26.563,43.183,26.563,43.154z"/>
		<path fill="#FF0000" d="M49.871,45.764c-0.096,1.103-0.248,2.162-0.443,3.169c1.854,1.095,3.631,2.46,5.291,4.12l2.104-2.104
			C54.68,48.806,52.338,47.076,49.871,45.764z"/>
		<path fill="#FF0000" d="M37.791,45.679c-2.988,0-5.977,0.607-8.84,1.832c-0.648,0.277-1.289,0.591-1.924,0.932
			c1.385,7.748,5.387,12.668,5.387,12.668h4.004c0,0-2.275-4.354-3.85-9.492c-0.16-0.524,0.15-1.082,0.688-1.195
			c3.32-0.702,6.695-0.629,10.004,0.218c0.523,0.135,0.807,0.691,0.645,1.209c-1.57,5.036-3.777,9.261-3.777,9.261h4.004
			c0,0,3.836-4.712,5.297-12.178c-0.914-0.539-1.846-1.017-2.791-1.422C43.773,46.286,40.783,45.679,37.791,45.679z"/>
		<path fill="#FF0000" d="M37.791,42.7c3.395,0,6.789,0.693,10.018,2.074c0.695,0.298,1.383,0.629,2.063,0.989
			c0.07-0.818,0.111-1.659,0.111-2.526c0-9.347-1.117-12.599-4.512-14.781L29.979,43.948C32.531,43.118,35.162,42.7,37.791,42.7z"/>
		<path fill="#FF0000" d="M41.516,26.542c-0.625-0.253-1.043-0.859-1.043-1.533c0-0.683,0.402-1.285,0.934-1.714
			c1.125-0.909,1.844-2.296,1.844-3.854c0-2.739-2.221-4.96-4.961-4.96c-2.738,0-4.959,2.221-4.959,4.96
			c0,1.559,0.719,2.945,1.844,3.854c0.529,0.427,0.934,1.026,0.934,1.707c0,0.659-0.395,1.264-1.006,1.511
			c-6.574,2.655-8.531,4.361-8.539,16.642L42.688,27.03C42.314,26.869,41.924,26.707,41.516,26.542z"/>
	</g>
</g>
</svg>
