<?xml version="1.0" encoding="utf-8"?>
<!-- Generator: Adobe Illustrator 16.0.2, SVG Export Plug-In . SVG Version: 6.00 Build 0)  -->
<!DOCTYPE svg PUBLIC "-//W3C//DTD SVG 1.1//EN" "http://www.w3.org/Graphics/SVG/1.1/DTD/svg11.dtd">
<svg version="1.1" id="Layer_1" xmlns="http://www.w3.org/2000/svg" xmlns:xlink="http://www.w3.org/1999/xlink" x="0px" y="0px"
	 width="75.591px" height="75.59px" viewBox="0 0 75.591 75.59" enable-background="new 0 0 75.591 75.59" xml:space="preserve">
<radialGradient id="SVGID_1_" cx="37.7954" cy="37.7949" r="37.7952" gradientUnits="userSpaceOnUse">
	<stop  offset="0" style="stop-color:#FFC000"/>
	<stop  offset="0.1624" style="stop-color:#FCBE00"/>
	<stop  offset="0.2928" style="stop-color:#F2B600"/>
	<stop  offset="0.4122" style="stop-color:#E1A900"/>
	<stop  offset="0.525" style="stop-color:#C99700"/>
	<stop  offset="0.6332" style="stop-color:#AA8000"/>
	<stop  offset="0.7379" style="stop-color:#846400"/>
	<stop  offset="0.8399" style="stop-color:#584200"/>
	<stop  offset="0.9371" style="stop-color:#251C00"/>
	<stop  offset="1" style="stop-color:#000000"/>
</radialGradient>
<circle opacity="0.13" fill="url(#SVGID_1_)" cx="37.795" cy="37.795" r="37.795"/>
<path fill="#FFC000" d="M68.466,36.859l-0.263-1.435c-0.171-0.929-0.665-1.737-1.348-2.304c-0.682-0.569-1.565-0.91-2.51-0.91h-1.89
	c-0.974,0-1.87,0.399-2.506,1.038c-0.639,0.636-1.038,1.532-1.037,2.506v1.608h-1.89v-5.388c0.001-0.974-0.399-1.87-1.038-2.506
	c-0.636-0.639-1.532-1.039-2.506-1.038h-3.578v-2.126c0.001-0.973-0.398-1.869-1.037-2.505c-0.636-0.639-1.532-1.039-2.506-1.038
	h-5.647v-2.363h5.746c0.914,0,1.654-0.74,1.654-1.653c0-0.913-0.74-1.654-1.654-1.654H25.516c-0.913,0-1.653,0.741-1.653,1.654
	c0,0.914,0.74,1.653,1.653,1.653h5.746v2.363h-5.646c-0.974-0.001-1.87,0.399-2.506,1.038c-0.639,0.636-1.039,1.532-1.038,2.505
	v0.236H17.15c-0.973-0.001-1.869,0.399-2.505,1.038c-0.639,0.636-1.038,1.532-1.038,2.505v6.262h-2.125v-8.151
	c0-0.573-0.346-1.09-0.875-1.31c-0.53-0.22-1.14-0.098-1.545,0.307l-0.945,0.945l-0.944,0.945c-0.265,0.264-0.415,0.629-0.415,1.002
	v4.548v3.603c0,0.374,0.15,0.739,0.415,1.003l0.944,0.944l0.53,0.53v9.454c0,0.782,0.635,1.417,1.417,1.417
	c0.783,0,1.418-0.635,1.418-1.417l0,0v-8.151h2.125v6.262c0,0.973,0.399,1.869,1.038,2.505c0.636,0.639,1.532,1.038,2.505,1.038
	h5.63c0.162-0.001,0.329,0.068,0.443,0.184l4.674,4.674c1.166,1.165,2.747,1.82,4.396,1.82h21.187
	c0.974,0.001,1.87-0.398,2.506-1.037c0.639-0.637,1.038-1.533,1.038-2.506v-5.389h1.89v1.609c-0.001,0.973,0.398,1.869,1.037,2.506
	c0.637,0.639,1.532,1.038,2.506,1.037h1.89c0.944,0,1.828-0.34,2.51-0.909c0.683-0.567,1.177-1.376,1.348-2.305l0.263-1.435
	c0.245-1.335,0.368-2.689,0.368-4.047v-5.117C68.834,39.549,68.711,38.194,68.466,36.859z M65.526,46.023
	c0,1.157-0.104,2.313-0.313,3.45l-0.264,1.435c-0.026,0.146-0.101,0.268-0.211,0.361c-0.111,0.091-0.244,0.143-0.393,0.143h-1.89
	c-0.07-0.001-0.119-0.023-0.167-0.069c-0.046-0.048-0.068-0.097-0.069-0.167v-2.317c0.001-0.712-0.294-1.372-0.761-1.837
	c-0.465-0.469-1.125-0.763-1.838-0.762h-3.307c-0.713-0.001-1.373,0.293-1.838,0.762c-0.467,0.465-0.762,1.125-0.761,1.837v6.097
	c-0.001,0.07-0.023,0.119-0.068,0.167c-0.049,0.046-0.098,0.068-0.168,0.069H32.293c-0.767,0.001-1.516-0.31-2.058-0.852
	l-4.673-4.674c-0.739-0.738-1.737-1.152-2.782-1.152h-5.63c-0.07-0.002-0.118-0.024-0.166-0.07
	c-0.046-0.047-0.068-0.096-0.069-0.166V30.084c0.001-0.07,0.023-0.119,0.069-0.167c0.048-0.045,0.096-0.068,0.166-0.069h5.63
	c0.712,0,1.372-0.294,1.837-0.761c0.468-0.465,0.762-1.125,0.761-1.837v-0.945c0.001-0.07,0.024-0.119,0.069-0.167
	c0.048-0.045,0.097-0.068,0.168-0.069h20.743c0.071,0,0.119,0.023,0.167,0.069c0.046,0.048,0.068,0.097,0.069,0.167v2.835
	c-0.001,0.712,0.294,1.373,0.761,1.837c0.466,0.468,1.126,0.762,1.838,0.761h4.286c0.07,0.001,0.119,0.024,0.167,0.069
	c0.045,0.048,0.068,0.096,0.069,0.167v6.097c-0.001,0.713,0.294,1.372,0.762,1.838c0.465,0.468,1.125,0.762,1.837,0.761h3.307
	c0.713,0.001,1.372-0.293,1.838-0.761c0.467-0.466,0.762-1.125,0.761-1.838v-2.317c0.001-0.071,0.023-0.12,0.069-0.167
	c0.048-0.045,0.097-0.068,0.167-0.069h1.89c0.148,0.001,0.281,0.052,0.393,0.144c0.109,0.093,0.185,0.214,0.211,0.36l0.264,1.435
	c0.209,1.137,0.313,2.293,0.313,3.45V46.023z"/>
</svg>
