<?xml version="1.0" encoding="utf-8"?>
<!-- Generator: Adobe Illustrator 16.0.2, SVG Export Plug-In . SVG Version: 6.00 Build 0)  -->
<!DOCTYPE svg PUBLIC "-//W3C//DTD SVG 1.1//EN" "http://www.w3.org/Graphics/SVG/1.1/DTD/svg11.dtd">
<svg version="1.1" id="Layer_1" xmlns="http://www.w3.org/2000/svg" xmlns:xlink="http://www.w3.org/1999/xlink" x="0px" y="0px"
	 width="80.362px" height="75.59px" viewBox="0 0 80.362 75.59" enable-background="new 0 0 80.362 75.59" xml:space="preserve">
<radialGradient id="SVGID_1_" cx="40.2397" cy="37.7949" r="37.7952" gradientUnits="userSpaceOnUse">
	<stop  offset="0" style="stop-color:#80FF00"/>
	<stop  offset="0.1624" style="stop-color:#7EFC00"/>
	<stop  offset="0.2928" style="stop-color:#79F200"/>
	<stop  offset="0.4122" style="stop-color:#71E100"/>
	<stop  offset="0.525" style="stop-color:#65C900"/>
	<stop  offset="0.6332" style="stop-color:#55AA00"/>
	<stop  offset="0.7379" style="stop-color:#428400"/>
	<stop  offset="0.8399" style="stop-color:#2C5800"/>
	<stop  offset="0.9371" style="stop-color:#132500"/>
	<stop  offset="1" style="stop-color:#000000"/>
</radialGradient>
<circle opacity="0.13" fill="url(#SVGID_1_)" cx="40.24" cy="37.795" r="37.795"/>
<g>
	<g>
		<path fill="#80FF00" d="M6.8,26.809l-3.549-1.774C1.173,29.175,0,33.847,0,38.787s1.173,9.611,3.252,13.752L6.8,50.766
			c-1.811-3.607-2.832-7.677-2.832-11.979C3.968,34.482,4.989,30.415,6.8,26.809z"/>
		<path fill="#80FF00" d="M13.901,30.359l-3.549-1.774c-1.542,3.072-2.416,6.536-2.416,10.201s0.874,7.129,2.417,10.202l3.548-1.774
			c-1.274-2.538-1.996-5.399-1.996-8.428C11.905,35.759,12.627,32.896,13.901,30.359z"/>
		<path fill="#80FF00" d="M20.998,33.907l-3.548-1.773c-1.006,2.003-1.576,4.262-1.576,6.652s0.57,4.649,1.576,6.653l3.549-1.773
			c-0.738-1.47-1.156-3.127-1.156-4.88S20.261,35.377,20.998,33.907z"/>
		<path fill="#80FF00" d="M79.293,34.001c-0.663-0.744-1.604-1.258-2.663-1.378l-5.946-0.673l-5.439-7.252
			c-0.373-0.499-0.964-0.794-1.587-0.794H47.788c-0.529,0-1.029,0.208-1.403,0.583l-7.483,7.495l-8.525,1.525
			c-1.959,0.353-3.525,1.815-4.011,3.746l-1.021,4.087c-0.071,0.285-0.106,0.576-0.106,0.86c0,0.476,0.097,0.938,0.272,1.356
			c0.263,0.629,0.699,1.167,1.263,1.555c0.562,0.388,1.264,0.62,1.999,0.619h2.977c0,0.816,0.167,1.604,0.47,2.317
			c0.453,1.07,1.205,1.975,2.154,2.616c0.947,0.642,2.103,1.02,3.328,1.019c0.817,0.001,1.605-0.167,2.317-0.469
			c1.07-0.454,1.975-1.206,2.617-2.155c0.642-0.947,1.02-2.103,1.019-3.328l0,0h17.859l0,0c-0.001,0.816,0.167,1.604,0.469,2.317
			c0.454,1.07,1.206,1.975,2.155,2.616c0.946,0.642,2.103,1.02,3.328,1.019c0.817,0.001,1.604-0.167,2.317-0.469
			c1.07-0.454,1.975-1.206,2.616-2.155c0.643-0.947,1.021-2.103,1.02-3.328h2.977c0.542,0,1.069-0.111,1.545-0.313
			c0.715-0.303,1.316-0.803,1.744-1.436c0.428-0.631,0.68-1.404,0.679-2.22v-4.961C80.363,35.736,79.958,34.743,79.293,34.001z
			 M71.434,41.763c-0.137,0-0.271,0.014-0.399,0.04c-0.904,0.185-1.585,0.985-1.585,1.944v1.984c0,0.277-0.055,0.532-0.155,0.77
			c-0.148,0.354-0.404,0.661-0.723,0.876c-0.32,0.215-0.691,0.338-1.106,0.339c-0.277-0.001-0.532-0.056-0.769-0.155
			c-0.354-0.149-0.662-0.404-0.877-0.723c-0.215-0.32-0.338-0.691-0.339-1.106v-1.984c0-0.523-0.211-1.033-0.581-1.403
			c-0.369-0.37-0.881-0.581-1.403-0.581H41.669c-0.522,0-1.033,0.211-1.402,0.581c-0.37,0.37-0.582,0.88-0.582,1.403v1.984
			c0,0.277-0.055,0.532-0.154,0.77c-0.149,0.354-0.405,0.661-0.724,0.876c-0.32,0.215-0.691,0.338-1.106,0.339
			c-0.277-0.001-0.532-0.056-0.769-0.155c-0.354-0.149-0.662-0.404-0.877-0.723c-0.215-0.32-0.338-0.691-0.339-1.106v-1.984
			c0-1.096-0.888-1.984-1.984-1.984h-4.402l0.886-3.546c0.1-0.407,0.447-0.731,0.859-0.803l9.141-1.635
			c0.004-0.001,0.008-0.002,0.012-0.003c0.048-0.009,0.096-0.021,0.143-0.033c0.017-0.004,0.033-0.007,0.05-0.012
			c0.048-0.015,0.095-0.031,0.142-0.049c0.015-0.006,0.03-0.01,0.044-0.015c0.042-0.018,0.083-0.037,0.124-0.057
			c0.018-0.009,0.037-0.017,0.055-0.025c0.03-0.017,0.06-0.035,0.09-0.053c0.026-0.016,0.054-0.03,0.079-0.047
			c0.022-0.015,0.043-0.031,0.064-0.046c0.032-0.023,0.064-0.046,0.095-0.071c0.019-0.015,0.036-0.031,0.055-0.047
			c0.031-0.028,0.063-0.055,0.093-0.084c0.003-0.004,0.008-0.007,0.011-0.011l7.342-7.354h14.054l5.357,7.144
			c0.006,0.008,0.013,0.015,0.019,0.022c0.021,0.027,0.044,0.055,0.067,0.081c0.021,0.023,0.04,0.048,0.062,0.069
			c0.021,0.023,0.045,0.045,0.068,0.067c0.024,0.022,0.048,0.047,0.073,0.068c0.022,0.02,0.046,0.037,0.068,0.056
			c0.028,0.021,0.055,0.044,0.083,0.064c0.024,0.018,0.051,0.033,0.077,0.05c0.027,0.018,0.056,0.036,0.084,0.053
			c0.029,0.017,0.059,0.031,0.089,0.046c0.027,0.014,0.054,0.028,0.082,0.041c0.031,0.015,0.064,0.026,0.097,0.039
			c0.027,0.011,0.055,0.022,0.083,0.031c0.031,0.011,0.064,0.02,0.097,0.028c0.031,0.009,0.061,0.018,0.091,0.025
			c0.031,0.007,0.063,0.012,0.094,0.018c0.034,0.006,0.067,0.012,0.102,0.017c0.011,0.001,0.02,0.004,0.029,0.005l6.797,0.769
			c0.063,0.008,0.107,0.033,0.149,0.078c0.041,0.047,0.061,0.095,0.062,0.157v4.961H71.434z"/>
	</g>
</g>
</svg>
