<?xml version="1.0" encoding="utf-8"?>
<!-- Generator: Adobe Illustrator 16.0.2, SVG Export Plug-In . SVG Version: 6.00 Build 0)  -->
<!DOCTYPE svg PUBLIC "-//W3C//DTD SVG 1.1//EN" "http://www.w3.org/Graphics/SVG/1.1/DTD/svg11.dtd">
<svg version="1.1" id="Layer_1" xmlns="http://www.w3.org/2000/svg" xmlns:xlink="http://www.w3.org/1999/xlink" x="0px" y="0px"
	 width="75.591px" height="75.591px" viewBox="0 0 75.591 75.591" enable-background="new 0 0 75.591 75.591" xml:space="preserve">
<radialGradient id="SVGID_1_" cx="37.7954" cy="37.7954" r="37.7957" gradientUnits="userSpaceOnUse">
	<stop  offset="0" style="stop-color:#FF0000"/>
	<stop  offset="0.1624" style="stop-color:#FC0000"/>
	<stop  offset="0.2928" style="stop-color:#F20000"/>
	<stop  offset="0.4122" style="stop-color:#E10000"/>
	<stop  offset="0.525" style="stop-color:#C90000"/>
	<stop  offset="0.6332" style="stop-color:#AA0000"/>
	<stop  offset="0.7379" style="stop-color:#840000"/>
	<stop  offset="0.8399" style="stop-color:#580000"/>
	<stop  offset="0.9371" style="stop-color:#250000"/>
	<stop  offset="1" style="stop-color:#000000"/>
</radialGradient>
<circle opacity="0.13" fill="url(#SVGID_1_)" cx="37.796" cy="37.796" r="37.796"/>
<g>
	<g>
		<path fill="#FF0000" d="M57.199,18.393l-3.342,3.341c4.111,4.111,6.653,9.789,6.653,16.062s-2.542,11.951-6.653,16.063
			l3.342,3.341c4.965-4.966,8.036-11.826,8.036-19.403S62.164,23.358,57.199,18.393z"/>
		<path fill="#FF0000" d="M21.734,21.733l-3.341-3.341c-4.965,4.966-8.037,11.825-8.037,19.402s3.071,14.438,8.037,19.403
			l3.341-3.341c-4.111-4.11-6.653-9.79-6.653-16.063S17.623,25.845,21.734,21.733z"/>
		<path fill="#FF0000" d="M52.495,23.097c-3.762-3.762-8.958-6.089-14.699-6.089c-5.74,0-10.938,2.326-14.699,6.089
			c-3.762,3.762-6.088,8.959-6.088,14.698c0,5.741,2.327,10.938,6.088,14.699s8.959,6.089,14.699,6.089
			c5.741,0,10.937-2.327,14.699-6.089s6.089-8.958,6.089-14.699C58.583,32.056,56.256,26.858,52.495,23.097z M49.822,49.822
			c-3.078,3.077-7.33,4.981-12.026,4.981c-4.697,0-8.949-1.904-12.026-4.981c-3.078-3.078-4.981-7.33-4.981-12.027
			c0-4.696,1.903-8.948,4.981-12.025c3.078-3.078,7.33-4.982,12.026-4.982c4.696,0,8.948,1.904,12.026,4.981
			c3.078,3.078,4.982,7.33,4.982,12.026C54.804,42.492,52.9,46.744,49.822,49.822z"/>
		<path fill="#FF0000" d="M45.388,28.536c-0.535-0.67-1.217-1.217-2.042-1.641c-0.826-0.424-1.798-0.637-2.913-0.637h-9.945V49.33
			h3.817v-8.974h6.061c1.05,0,1.981-0.212,2.796-0.637c0.814-0.424,1.508-0.976,2.076-1.657c0.569-0.681,1.004-1.44,1.307-2.277
			c0.301-0.837,0.451-1.667,0.451-2.494c0-0.826-0.134-1.657-0.402-2.495C46.326,29.959,45.924,29.206,45.388,28.536z
			 M42.257,35.915c-0.658,0.661-1.545,0.992-2.662,0.992h-5.29v-7.199h5.29c1.117,0,2.004,0.332,2.662,0.993s0.988,1.53,0.988,2.606
			C43.246,34.385,42.916,35.253,42.257,35.915z"/>
	</g>
</g>
</svg>
