<?xml version="1.0" encoding="utf-8"?>
<!-- Generator: Adobe Illustrator 16.0.2, SVG Export Plug-In . SVG Version: 6.00 Build 0)  -->
<!DOCTYPE svg PUBLIC "-//W3C//DTD SVG 1.1//EN" "http://www.w3.org/Graphics/SVG/1.1/DTD/svg11.dtd">
<svg version="1.1" id="Layer_1" xmlns="http://www.w3.org/2000/svg" xmlns:xlink="http://www.w3.org/1999/xlink" x="0px" y="0px"
	 width="75.59px" height="75.591px" viewBox="0 0 75.59 75.591" enable-background="new 0 0 75.59 75.591" xml:space="preserve">
<radialGradient id="SVGID_1_" cx="37.7949" cy="37.7954" r="37.7952" gradientUnits="userSpaceOnUse">
	<stop  offset="0" style="stop-color:#FF0000"/>
	<stop  offset="0.1624" style="stop-color:#FC0000"/>
	<stop  offset="0.2928" style="stop-color:#F20000"/>
	<stop  offset="0.4122" style="stop-color:#E10000"/>
	<stop  offset="0.525" style="stop-color:#C90000"/>
	<stop  offset="0.6332" style="stop-color:#AA0000"/>
	<stop  offset="0.7379" style="stop-color:#840000"/>
	<stop  offset="0.8399" style="stop-color:#580000"/>
	<stop  offset="0.9371" style="stop-color:#250000"/>
	<stop  offset="1" style="stop-color:#000000"/>
</radialGradient>
<circle opacity="0.13" fill="url(#SVGID_1_)" cx="37.795" cy="37.795" r="37.795"/>
<g>
	<g>
		<path fill="#FF0000" d="M37.795,53.269c2.74,0,4.961-2.221,4.961-4.961c0-1.621-0.781-3.057-1.985-3.961v-4.385h9.922v-2.976
			h-9.922v-4.961h9.922v-2.977h-9.922v-4.961h9.922v-2.977h-9.922v-3.386c0-1.645-1.331-2.977-2.976-2.977s-2.976,1.332-2.976,2.977
			v26.622c-1.204,0.904-1.985,2.34-1.985,3.961C32.834,51.048,35.055,53.269,37.795,53.269z"/>
		<path fill="#FF0000" d="M57.449,54.728c-0.875,0.003-1.646,0.21-2.323,0.458c-0.681,0.251-1.281,0.551-1.827,0.818
			c-0.546,0.269-1.038,0.505-1.45,0.656c-0.412,0.153-0.734,0.214-0.951,0.214c-0.218,0-0.537-0.061-0.952-0.214
			c-0.412-0.151-0.904-0.388-1.449-0.656c-0.546-0.268-1.146-0.567-1.825-0.818c-0.679-0.248-1.45-0.455-2.324-0.458
			c-0.875,0.003-1.646,0.21-2.323,0.458c-0.681,0.251-1.281,0.551-1.827,0.818c-0.546,0.269-1.035,0.505-1.45,0.656
			c-0.412,0.153-0.733,0.214-0.951,0.214s-0.537-0.061-0.951-0.214c-0.413-0.151-0.905-0.388-1.45-0.656
			c-0.546-0.268-1.146-0.567-1.825-0.818c-0.679-0.248-1.45-0.455-2.323-0.458c-0.876,0.003-1.647,0.21-2.326,0.458
			c-0.679,0.251-1.279,0.551-1.825,0.818c-0.545,0.269-1.037,0.505-1.45,0.656c-0.412,0.153-0.733,0.214-0.951,0.214
			s-0.537-0.061-0.951-0.214c-0.412-0.151-0.904-0.388-1.45-0.656c-0.546-0.268-1.146-0.567-1.825-0.818
			c-0.679-0.248-1.45-0.455-2.323-0.458c-0.876,0.003-1.647,0.21-2.324,0.458c-0.336,0.124-0.651,0.261-0.953,0.397v4.402
			c0.308-0.141,0.599-0.284,0.876-0.42c0.545-0.27,1.035-0.505,1.447-0.656c0.414-0.154,0.734-0.215,0.954-0.213
			c0.217-0.002,0.537,0.059,0.951,0.213c0.412,0.151,0.902,0.387,1.448,0.656c0.547,0.268,1.148,0.568,1.827,0.818
			c0.679,0.248,1.449,0.455,2.323,0.458c0.874-0.003,1.646-0.21,2.323-0.458c0.679-0.25,1.28-0.551,1.827-0.818
			c0.546-0.27,1.036-0.505,1.448-0.656c0.414-0.154,0.734-0.215,0.954-0.213c0.217-0.002,0.537,0.059,0.951,0.213
			c0.412,0.151,0.902,0.387,1.448,0.656c0.547,0.268,1.148,0.568,1.827,0.818c0.679,0.248,1.449,0.455,2.323,0.458
			c0.874-0.003,1.646-0.21,2.323-0.458c0.679-0.25,1.28-0.551,1.827-0.818c0.546-0.27,1.036-0.505,1.448-0.656
			c0.414-0.154,0.734-0.215,0.953-0.213c0.218-0.002,0.538,0.059,0.952,0.213c0.412,0.151,0.904,0.387,1.447,0.656
			c0.548,0.268,1.148,0.568,1.828,0.818c0.679,0.248,1.449,0.455,2.323,0.458c0.873-0.003,1.646-0.21,2.323-0.458
			c0.679-0.25,1.28-0.551,1.827-0.818c0.546-0.27,1.036-0.505,1.448-0.656c0.414-0.154,0.736-0.215,0.953-0.213
			c0.218-0.002,0.538,0.059,0.952,0.213c0.412,0.151,0.902,0.387,1.447,0.656c0.277,0.136,0.568,0.279,0.876,0.42v-4.402
			c-0.302-0.137-0.617-0.273-0.951-0.397C59.095,54.938,58.323,54.73,57.449,54.728z"/>
		<path fill="#FF0000" d="M61.547,47.225c-0.736-0.241-1.555-0.433-2.461-0.435c-0.451,0-0.884,0.05-1.292,0.128
			c-0.41,0.077-0.798,0.186-1.169,0.307c-0.369,0.12-0.72,0.257-1.054,0.394c-0.337,0.137-0.656,0.277-0.964,0.411
			c-0.306,0.134-0.602,0.262-0.88,0.376c-0.277,0.113-0.539,0.214-0.785,0.293c-0.244,0.08-0.472,0.141-0.677,0.18
			s-0.386,0.059-0.55,0.059c-0.162,0-0.345-0.02-0.548-0.059c-0.205-0.039-0.433-0.1-0.677-0.18
			c-0.246-0.079-0.509-0.18-0.785-0.293c-0.281-0.114-0.574-0.242-0.882-0.376c-0.306-0.134-0.628-0.274-0.962-0.411
			s-0.686-0.273-1.057-0.394c-0.262-0.087-0.539-0.161-0.822-0.228v4.146c0.121,0.046,0.246,0.095,0.376,0.147
			c0.278,0.113,0.571,0.242,0.879,0.377c0.306,0.134,0.628,0.273,0.962,0.41c0.337,0.138,0.688,0.273,1.057,0.393
			c0.369,0.121,0.757,0.229,1.165,0.307c0.41,0.078,0.843,0.128,1.294,0.128s0.884-0.05,1.294-0.128s0.798-0.186,1.167-0.307
			c0.367-0.119,0.718-0.255,1.056-0.393c0.335-0.137,0.654-0.276,0.962-0.41c0.308-0.135,0.601-0.264,0.88-0.377
			c0.279-0.115,0.544-0.215,0.787-0.295c0.244-0.079,0.47-0.14,0.675-0.179s0.388-0.058,0.55-0.058
			c0.324-0.001,0.734,0.075,1.227,0.236c0.49,0.16,1.052,0.402,1.665,0.67c0.255,0.112,0.521,0.227,0.794,0.342v-4.318
			C62.384,47.526,61.978,47.366,61.547,47.225z"/>
		<path fill="#FF0000" d="M16.504,50.759c0.162,0,0.345,0.019,0.55,0.058s0.431,0.1,0.674,0.179c0.244,0.08,0.509,0.18,0.788,0.295
			c0.278,0.113,0.572,0.242,0.88,0.377c0.308,0.134,0.627,0.273,0.962,0.41c0.338,0.138,0.688,0.273,1.056,0.393
			c0.369,0.121,0.757,0.229,1.165,0.307c0.412,0.078,0.845,0.128,1.296,0.128s0.884-0.05,1.294-0.128
			c0.408-0.078,0.796-0.186,1.167-0.307c0.367-0.119,0.718-0.255,1.055-0.393c0.336-0.137,0.656-0.276,0.964-0.41
			c0.305-0.135,0.599-0.264,0.877-0.377c0.13-0.053,0.255-0.102,0.376-0.147v-4.146c-0.283,0.066-0.561,0.141-0.822,0.228
			c-0.369,0.12-0.721,0.257-1.057,0.394c-0.334,0.137-0.656,0.277-0.962,0.411c-0.308,0.134-0.601,0.262-0.88,0.376
			c-0.276,0.113-0.541,0.214-0.787,0.293c-0.244,0.08-0.472,0.141-0.677,0.18c-0.203,0.039-0.386,0.059-0.548,0.059
			c-0.164,0-0.345-0.02-0.55-0.059s-0.431-0.1-0.675-0.18c-0.248-0.079-0.51-0.18-0.787-0.293c-0.279-0.114-0.572-0.242-0.88-0.376
			s-0.627-0.274-0.964-0.411c-0.334-0.137-0.685-0.273-1.054-0.394c-0.371-0.121-0.759-0.229-1.169-0.307
			c-0.408-0.078-0.841-0.128-1.292-0.128c-0.906,0.002-1.723,0.193-2.461,0.435c-0.431,0.142-0.837,0.302-1.225,0.464v4.318
			c0.272-0.115,0.539-0.229,0.794-0.34c0.613-0.27,1.175-0.512,1.667-0.672C15.77,50.834,16.18,50.758,16.504,50.759z"/>
	</g>
</g>
</svg>
