<?xml version="1.0" encoding="utf-8"?>
<!-- Generator: Adobe Illustrator 16.0.2, SVG Export Plug-In . SVG Version: 6.00 Build 0)  -->
<!DOCTYPE svg PUBLIC "-//W3C//DTD SVG 1.1//EN" "http://www.w3.org/Graphics/SVG/1.1/DTD/svg11.dtd">
<svg version="1.1" id="Layer_1" xmlns="http://www.w3.org/2000/svg" xmlns:xlink="http://www.w3.org/1999/xlink" x="0px" y="0px"
	 width="75.591px" height="75.59px" viewBox="0 0 75.591 75.59" enable-background="new 0 0 75.591 75.59" xml:space="preserve">
<radialGradient id="SVGID_1_" cx="37.7954" cy="37.7949" r="37.7952" gradientUnits="userSpaceOnUse">
	<stop  offset="0" style="stop-color:#FFFFFF"/>
	<stop  offset="0.1624" style="stop-color:#FCFCFC"/>
	<stop  offset="0.2928" style="stop-color:#F2F2F2"/>
	<stop  offset="0.4122" style="stop-color:#E1E1E1"/>
	<stop  offset="0.525" style="stop-color:#C9C9C9"/>
	<stop  offset="0.6332" style="stop-color:#AAAAAA"/>
	<stop  offset="0.7379" style="stop-color:#848484"/>
	<stop  offset="0.8399" style="stop-color:#585858"/>
	<stop  offset="0.9371" style="stop-color:#252525"/>
	<stop  offset="1" style="stop-color:#000000"/>
</radialGradient>
<circle opacity="0.13" fill="url(#SVGID_1_)" cx="37.795" cy="37.795" r="37.795"/>
<g>
	<polygon fill="#FFFFFF" points="23.059,21.457 23.06,21.457 19.051,17.448 15.042,21.457 19.051,25.465 19.052,25.465 
		17.047,27.47 25.064,27.47 25.064,19.453 	"/>
	<path fill="#FFFFFF" d="M39.763,21.381c-5.74,0-10.938,2.327-14.699,6.089c-3.762,3.762-6.089,8.958-6.089,14.699
		c0,6.421,2.913,12.159,7.487,15.973l5.356-5.357l-2.672-2.673l-2.669,2.67c-1.958-2.446-3.252-5.443-3.615-8.723h3.777v-3.78
		h-3.777c0.362-3.279,1.658-6.276,3.615-8.723l2.669,2.669l6.22,6.221c-0.209,0.535-0.329,1.114-0.329,1.724
		c0,2.608,2.115,4.724,4.725,4.724s4.725-2.115,4.725-4.724c0-2.61-2.115-4.725-4.725-4.725c-0.608,0-1.188,0.119-1.723,0.329
		l-6.22-6.221l-2.669-2.669c2.446-1.957,5.443-3.253,8.723-3.615v3.777h3.779v-3.777c3.28,0.362,6.277,1.658,8.723,3.615
		l-2.668,2.669l2.672,2.672l2.67-2.669c1.957,2.447,3.252,5.444,3.615,8.723h-3.777v3.78h3.777
		c-0.363,3.279-1.658,6.277-3.615,8.723l-2.67-2.67l-2.673,2.674l5.356,5.357c4.575-3.814,7.488-9.553,7.488-15.974
		C60.551,30.688,51.244,21.381,39.763,21.381z"/>
</g>
</svg>
